# xmcd
#
# Track frame offsets:
#	150
#	11244
#	21949
#	35139
#	47596
#	59079
#	72370
#	82095
#	91262
#	105575
#	117630
#	131720
#	144038
#	155339
#	166254
#
# Disc length: 2382 seconds
# Revision: 2
# Processed by: cddbd v1.5.2PL0 Copyright (c) Steve Scherf et al.
# Submitted via: dBpowerAMP V12.0
#
DISCID=d1094c0f
DTITLE=Various Artist - Drifter's Escape: the Music That Inspired Bob Dylan's John Wesley Harding and Nashville Skyline
DYEAR=2008
DGENRE=Country
TTITLE0=Hank Williams - I'll Never Get Out of This World Alive
TTITLE1=Johnny Cash - Train of Love
TTITLE2=The Carter Family - John Hardy Was a Desperate Little Man
TTITLE3=Jerry Lee Lewis - Deep Elem Blues
TTITLE4=Elvis Presley - Blue Moon
TTITLE5=Clarence 'Tom' Ashley - The Coo Coo Bird
TTITLE6=Carl Perkins - Matchbox
TTITLE7=Bill Monroe - Blue Moon of Kentucky
TTITLE8=Woody Guthrie - Pretty Boy Floyd
TTITLE9=The Delmore Brothers - I'm Lonesome Without You
TTITLE10=Richard 'Rabbit' Brown - James Alley Blues
TTITLE11=Hank Thompson - The Wild Side of Life
TTITLE12=The Louvin Brothers - When I Stop Dreaming
TTITLE13=Lefty Frizell - Lost Love Blues
TTITLE14=Woody Guthrie - I Ain't Got No Home in This World Anymore
EXTD=
EXTT0=
EXTT1=
EXTT2=
EXTT3=
EXTT4=
EXTT5=
EXTT6=
EXTT7=
EXTT8=
EXTT9=
EXTT10=
EXTT11=
EXTT12=
EXTT13=
EXTT14=
PLAYORDER=
